<svg width="20" height="20" viewBox="0 0 20 20" fill="none" xmlns="http://www.w3.org/2000/svg">
<path fill-rule="evenodd" clip-rule="evenodd" d="M0.00451565 9.03278V16.9495C0.00451565 17.1307 0.00900086 17.2897 0.0379822 17.4698C0.0452276 17.5143 0.0700687 17.5678 0.0769691 17.6254C0.0904247 17.7431 0.124236 17.8145 0.160463 17.9163C0.172194 17.9494 0.166328 17.9559 0.177024 17.9897L0.262588 18.2033C0.274318 18.2337 0.275699 18.2354 0.290879 18.2647L0.390934 18.449C0.432336 18.5356 0.493749 18.6073 0.541016 18.6881C0.560682 18.7219 0.552747 18.7119 0.575518 18.7436L0.949515 19.1628C0.95193 19.1649 0.955036 19.168 0.957451 19.17C0.970906 19.1821 0.968491 19.1794 0.981257 19.1911C1.02473 19.2315 1.03646 19.2453 1.08476 19.2822L1.14238 19.3291C1.14479 19.3312 1.14824 19.3339 1.15066 19.3357C1.15307 19.3377 1.15653 19.3401 1.15929 19.3422C1.16584 19.3474 1.17861 19.356 1.18516 19.3612C1.18758 19.3633 1.19103 19.3657 1.19344 19.3677L1.23415 19.4019C1.38596 19.5258 1.57123 19.6113 1.74478 19.6993C1.95179 19.8042 1.96386 19.7856 2.11567 19.8521L2.49933 19.9474C2.61042 19.9798 2.92163 19.9877 3.04238 19.9877H16.9607C17.1225 19.9877 17.3192 19.985 17.4806 19.9539L18.042 19.7966C18.0451 19.7952 18.0489 19.7928 18.052 19.7918L18.2762 19.7017C18.2962 19.6914 18.3169 19.6827 18.3366 19.6724L18.5164 19.5678C18.5219 19.5644 18.5226 19.563 18.5443 19.5509C18.5623 19.5409 18.5661 19.5409 18.584 19.5309C18.6271 19.5068 18.6606 19.4733 18.6975 19.4499C18.7448 19.4202 18.7596 19.4119 18.8038 19.3767L18.8624 19.3305C18.8648 19.3284 18.8679 19.3253 18.8704 19.3232L19.3724 18.8074L19.5904 18.4869C19.5928 18.4831 19.5987 18.4714 19.6008 18.4672L19.863 17.8766C19.8847 17.8269 19.8709 17.85 19.883 17.7917C19.8999 17.7089 19.9168 17.7448 19.9247 17.6389C19.9306 17.5599 19.9396 17.5564 19.9585 17.4929C19.9906 17.3867 19.9989 17.0658 19.9989 16.9495V9.03278C19.9989 8.99793 19.9741 8.97309 19.9392 8.97309H0.0648935C0.0300469 8.97309 0.00520568 8.99793 0.00520568 9.03278H0.00451565Z" fill="#50AF70"/>
<path fill-rule="evenodd" clip-rule="evenodd" d="M0.00451565 6.99753C0.0379822 7.00546 0.0390173 7.01236 0.0793842 7.01236H19.924C19.9644 7.01236 19.9654 7.00512 19.9989 6.99753C19.9989 6.4976 20.0089 5.98973 19.9685 5.53121L19.9233 5.30695C19.913 5.22035 19.8554 5.11443 19.8343 5.02162L19.7947 4.9119C19.7888 4.89465 19.7905 4.89293 19.785 4.87637C19.7712 4.83531 19.7715 4.84738 19.7553 4.81633L19.3465 4.13251C19.1081 3.82786 19.1446 3.90238 18.8776 3.65846C18.7758 3.5653 18.6575 3.48491 18.5388 3.41384C18.4905 3.38486 18.4546 3.37209 18.4111 3.34691L18.2362 3.25272C18.2159 3.24409 18.2207 3.24754 18.2031 3.24099L18.0968 3.19786C18.0765 3.192 18.0848 3.19648 18.062 3.18786C18.0209 3.17198 18.0551 3.18234 18.022 3.16784L17.8032 3.10229C17.7691 3.09401 17.7677 3.08815 17.739 3.07676C17.668 3.04881 17.3354 3.00431 17.2453 3.00189L16.1375 2.9874C15.9515 2.99051 16.0033 2.95359 16.0033 2.74727C16.0033 2.4126 16.0202 1.1012 16.0029 0.862101C15.9981 0.795168 15.9764 0.764461 15.9636 0.722024C15.8987 0.510184 15.7787 0.348372 15.611 0.20657L15.5948 0.192769C15.5924 0.190699 15.5889 0.187939 15.5865 0.186214C15.5841 0.184144 15.5806 0.181384 15.5782 0.179659L15.5144 0.138602C15.4364 0.0909894 15.3419 0.0471723 15.2532 0.0257812C15.0952 -0.0125156 14.9247 -0.00216507 14.7716 0.0192259L14.6318 0.0589028C14.5287 0.10134 14.4307 0.148952 14.3486 0.224511L14.1585 0.423585C14.1416 0.447736 14.125 0.471197 14.1105 0.495348L14.065 0.584708C14.0129 0.716159 13.9666 0.850715 13.9677 0.996312L13.968 2.77729C13.968 2.8456 13.9953 2.98671 13.9232 2.98671H6.08129C6.01194 2.98671 6.03609 2.86734 6.03644 2.79212L6.03678 1.0108C6.03747 0.874866 6.01401 0.816904 5.98744 0.700978C5.97985 0.667857 5.99124 0.700633 5.97088 0.657851L5.95122 0.617484C5.86462 0.404264 5.69798 0.222786 5.49476 0.116176L5.35951 0.0568327C5.30673 0.0361317 5.32225 0.0340616 5.25911 0.0226761C5.09799 -0.00665028 4.94446 -0.0069953 4.78955 0.0185359C4.72779 0.0288864 4.75022 0.0230211 4.70709 0.040617C4.68328 0.0502774 4.66396 0.0578678 4.64188 0.0651131L4.39381 0.206225C4.27409 0.30766 4.17404 0.415305 4.10227 0.558141C3.98566 0.789302 4.00153 0.934209 4.00153 1.20574L4.00325 2.89873C4.00222 3.03329 3.94184 2.98671 3.52265 2.98671L2.96855 2.98637C2.83744 2.98568 2.5535 3.00983 2.45379 3.04019C2.38823 3.05985 2.3458 3.05261 2.28749 3.06814L1.80343 3.24271C1.78653 3.25099 1.7603 3.26514 1.74374 3.27273C1.72408 3.2817 1.73477 3.27652 1.71166 3.2855C1.69268 3.29274 1.70165 3.28722 1.67853 3.29723C1.64162 3.31344 1.64852 3.31448 1.61126 3.33483L1.57227 3.35553C1.56882 3.3576 1.5564 3.36416 1.55295 3.36623L1.37665 3.47422C1.29522 3.53391 1.20759 3.5829 1.13479 3.65121L0.864986 3.89031C0.825655 3.92964 0.812889 3.95276 0.772867 3.99278L0.670397 4.11491C0.655216 4.13113 0.663497 4.12112 0.648316 4.13769C0.477188 4.32813 0.348842 4.59621 0.241542 4.82358L0.153908 5.06509C0.133897 5.11029 0.139762 5.07233 0.127686 5.12892L0.0372922 5.51741C-0.0196355 6.00871 0.0055507 6.50346 0.0055507 6.99718L0.00451565 6.99753Z" fill="#50AF70"/>
</svg>
